<svg xmlns="http://www.w3.org/2000/svg" class="ionicon" viewBox="0 0 512 512">
  <path d="M304 384v-24c0-29-31.54-43.43-54.6-30.35l-1.46.64L224 368l-23.4-13.8-1.46-.64C176.54 340.57 145 355 145 384v24a4 4 0 004 4h151a4 4 0 004-4z M208 288c0-79.4 64.6-144 144-144s144 64.6 144 144c0 28.67-8.25 55.48-22.56 78.11-18.83 29.92-52.47 54.53-96.11 71.18a8 8 0 01-6.67 0A181.62 181.62 0 01256 384c-79.4 0-144-64.6-144-144z" fill="none" stroke="currentColor" stroke-linecap="round" stroke-linejoin="round" stroke-width="32"/>
</svg>