<svg xmlns="http://www.w3.org/2000/svg" class="ionicon" viewBox="0 0 512 512">
  <path d="M160 240a16 16 0 1116-16 16 16 0 01-16 16z M352 240a16 16 0 1116-16 16 16 0 01-16 16z M160 288a16 16 0 1116-16 16 16 0 01-16 16z M352 288a16 16 0 1116-16 16 16 0 01-16 16z M160 336a16 16 0 1116-16 16 16 0 01-16 16z M352 336a16 16 0 1116-16 16 16 0 01-16 16z M160 384a16 16 0 1116-16 16 16 0 01-16 16z M352 384a16 16 0 1116-16 16 16 0 01-16 16z" fill="none" stroke="currentColor" stroke-linecap="round" stroke-linejoin="round" stroke-width="32"/>
</svg>