<svg xmlns="http://www.w3.org/2000/svg" viewBox="0 0 512 512">
  <path d="M256 48C141.31 48 48 141.31 48 256s93.31 208 208 208 208-93.31 208-208S370.69 48 256 48zm0 352c-79.4 0-144-64.6-144-144s64.6-144 144-144 144 64.6 144 144-64.6 144-144 144z" fill="currentColor"/>
  <path d="M256 48c-79.4 0-144 64.6-144 144s64.6 144 144 144 144-64.6 144-144S335.4 48 256 48zm0 240c-52.9 0-96-43.1-96-96s43.1-96 96-96 96 43.1 96 96-43.1 96-96 96z" fill="currentColor"/>
  <path d="M256 48v416" fill="none" stroke="currentColor" stroke-width="32" stroke-linecap="round"/>
  <path d="M48 256h416" fill="none" stroke="currentColor" stroke-width="32" stroke-linecap="round"/>
</svg> 
