<svg xmlns="http://www.w3.org/2000/svg" class="ionicon" viewBox="0 0 512 512">
  <path d="M256 64C150 64 64 150 64 256s86 192 192 192 192-86 192-192S362 64 256 64zm-6 304a20 20 0 1120-20 20 20 0 01-20 20zm33.44-102C267.23 277.88 265 286.85 265 296a14 14 0 01-28 0c0-21.91 10.08-39.33 30.82-53.26C287.1 229.8 298 221.6 298 203.57c0-12.26-7-21.57-25.29-21.57a28.91 28.91 0 00-13.09 3.11 30 30 0 01-11.12 2 14 14 0 01-14-14c0-5.57 2.4-9.29 6.35-12.82A50.48 50.48 0 01259.78 160c37.49 0 58.22 20.35 58.22 47.22 0 29.28-12.58 43.72-35.51 53.78z" fill="none" stroke="currentColor" stroke-linecap="round" stroke-linejoin="round" stroke-width="32"/>
</svg> 
