<svg xmlns="http://www.w3.org/2000/svg" class="ionicon" viewBox="0 0 512 512">
  <path d="M508.64 148.79c0-45-33.1-81.2-75-81.2C379.24 65 322.74 64 265 64h-18c-57.6 0-114.2 1-168.6 3.6C36.6 67.6 3.5 104 3.5 149 1 184.59-.06 220.19 0 255.79q-.15 53.4 3.4 106.9c0 45 33.1 81.5 75 81.5C153.8 448.4 197.4 448 241 448h18c57.6 0 114.2-1 168.6-3.6 45-2.6 78.5-39 78.5-84.3 2.4-35.7 3.5-71.3 3.4-106.9.1-53.4-3.3-106.8-3.5-106.9zM207 353.89v-196.5l145 98.2z" fill="none" stroke="currentColor" stroke-linecap="round" stroke-linejoin="round" stroke-width="32"/>
</svg>