<svg xmlns="http://www.w3.org/2000/svg" class="ionicon" viewBox="0 0 512 512">
  <path d="M402 168c-2.93 40.67-33.1 68-65 68s-62.12-27.33-65-68c-1-12.15 5.53-29.53 26.71-29.53S401 156.38 402 168z M336 304c-17.67 0-64 44-64 96v32h128v-32c0-52-46.33-96-64-96z M200 185.94c-2.34-12-12.87-22.07-26.53-22.07S147.66 173.93 145.32 185.94A64.07 64.07 0 00152 200c0 30.93 25.07 56 56 56s56-25.07 56-56a64.07 64.07 0 006.68-14.06z M145.32 185.94c-2.34-12-12.87-22.07-26.53-22.07S102.34 173.93 100 185.94A64.07 64.07 0 00106.68 200c0 30.93 25.07 56 56 56s56-25.07 56-56a64.07 64.07 0 006.68-14.06z M336 304c-17.67 0-64 44-64 96v32h128v-32c0-52-46.33-96-64-96z M200 185.94c-2.34-12-12.87-22.07-26.53-22.07S147.66 173.93 145.32 185.94A64.07 64.07 0 00152 200c0 30.93 25.07 56 56 56s56-25.07 56-56a64.07 64.07 0 006.68-14.06z" fill="none" stroke="currentColor" stroke-linecap="round" stroke-linejoin="round" stroke-width="32"/>
</svg>