<svg xmlns="http://www.w3.org/2000/svg" class="ionicon" viewBox="0 0 512 512">
  <path d="M461.81 53.81a4.4 4.4 0 000 6.82L417.17 104.4 311.6 198.71l-11.18 11.1a25 25 0 000 35.18l26.37 26.37a25 25 0 0035.18 0l11.1-11.18L407.6 94.83l43.76-44.64a4.4 4.4 0 016.82 0z M227.95 240.26a25.93 25.93 0 00-15.77 15.93l-29.88 84.39a26 26 0 00-3.79 12.88V343.6a25.9 25.9 0 007.33 18.39l17.52 17.52a25.9 25.9 0 0018.4 7.33h0.21a26 26 0 0012.88-3.78l84.39-29.88a25.93 25.93 0 0015.93-15.77l46.7-113.11a3.2 3.2 0 00-.23-2.96z M479.8 159.94a16.12 16.12 0 01-11 6.08l-18.83 2.8L305 82.15l2.8-18.83a16.12 16.12 0 016.08-11 15.91 15.91 0 0119.61 3.8l16.6 16.6a15.91 15.91 0 013.8 19.62z" fill="none" stroke="currentColor" stroke-linecap="round" stroke-linejoin="round" stroke-width="32"/>
</svg>