<svg xmlns="http://www.w3.org/2000/svg" class="ionicon" viewBox="0 0 512 512">
  <path fill="none" stroke="currentColor" stroke-linecap="round" stroke-linejoin="round" stroke-width="32" d="M262.29 192.31a64 64 0 10-57.4 57.4A64 64 0 10262.29 192.31z"/>
  <path fill="none" stroke="currentColor" stroke-linecap="round" stroke-linejoin="round" stroke-width="32" d="M416 294.31a8 8 0 000-11.19l-51.23-56.4a2 2 0 00-1.74-1H148.92a2 2 0 00-1.74 1L96 283.12a8 8 0 000 11.19l51.23 56.4a2 2 0 001.74 1h214.11a2 2 0 001.74-1z"/>
  <path fill="none" stroke="currentColor" stroke-linecap="round" stroke-linejoin="round" stroke-width="32" d="M256 160a96 96 0 1096 96 96 96 0 00-96-96z"/>
</svg> 