<svg xmlns="http://www.w3.org/2000/svg" class="ionicon" viewBox="0 0 512 512">
  <path d="M259.92 262.91L216.4 149.77a9 9 0 00-16.8 0L156.08 262.91a9 9 0 01-5.17 5.17L37.77 311.6a9 9 0 000 16.8l113.14 43.52a9 9 0 015.17 5.17L199.6 490.23a9 9 0 0016.8 0l43.52-113.14a9 9 0 015.17-5.17L490.23 328.4a9 9 0 000-16.8L377.09 268.08a9 9 0 01-5.17-5.17z M108 68L88 16a8 8 0 00-16 0L52 68a8 8 0 01-4 4L0 88a8 8 0 000 16l48 16a8 8 0 014 4l20 52a8 8 0 0016 0l20-52a8 8 0 014-4l48-16a8 8 0 000-16l-48-16a8 8 0 01-4-4z M400 400l-20-52a8 8 0 00-16 0l-20 52a8 8 0 01-4 4l-48 16a8 8 0 000 16l48 16a8 8 0 014 4l20 52a8 8 0 0016 0l20-52a8 8 0 014-4l48-16a8 8 0 000-16l-48-16a8 8 0 01-4-4z" fill="none" stroke="currentColor" stroke-linecap="round" stroke-linejoin="round" stroke-width="32"/>
</svg>