<svg xmlns="http://www.w3.org/2000/svg" class="ionicon" viewBox="0 0 512 512">
  <path fill="none" stroke="currentColor" stroke-linecap="round" stroke-linejoin="round" stroke-width="32" d="M434.67 285.59a149 149 0 00-5-36.65 150.2 150.2 0 00-35.62-56.65 139.92 139.92 0 00-56.18-38.34 149.4 149.4 0 00-47-7.65 150.67 150.67 0 00-46.69 7.65 137.9 137.9 0 00-56.28 38.35 150.2 150.2 0 00-35.6 56.65 149.4 149.4 0 00-5.08 36.65 147.62 147.62 0 005.08 36.94 150.2 150.2 0 0035.6 56.65 137.9 137.9 0 0056.28 38.34 149.4 149.4 0 0046.69 7.66 150.67 150.67 0 0047-7.66 139.92 139.92 0 0056.18-38.34 150.2 150.2 0 0035.62-56.65 149 149 0 005-36.94z"/>
  <path fill="none" stroke="currentColor" stroke-linecap="round" stroke-linejoin="round" stroke-width="32" d="M434.67 285.59l-.35.2s-10.52 5.26-28.53 10.47c-17.68 5.09-43.42 10.7-63.12 10.7s-45.44-5.61-63.12-10.7c-18-5.21-28.53-10.47-28.53-10.47l-.35-.2"/>
</svg> 